 <svg height="500" width="500" xmlns="http://www.w3.org/2000/svg">
<path style="stroke: rgb(0, 0, 0); fill: rgb(46, 60, 127);" d="M 97.386 287.803 L 149.347 182.95 L 197.262 146.546 L 183.261 219.042 L 217.486 190.417 L 261.357 54.138 L 110.765 159.925 L 39.826 300.56 L 124.456 385.812 L 262.601 235.532 L 127.567 318.606 L 97.386 287.803 Z"></path>
<path d="M 314.872 148.413 L 322.651 139.701 L 389.857 171.437 L 340.697 245.488 L 260.423 313.006 Z M 269.757 153.703 L 243.311 240.199 L 274.113 224.331 L 275.358 231.176 L 246.422 263.535 L 230.243 280.025 L 201.618 367.144 L 131.301 463.597 L 367.144 280.336 L 458.307 158.059 L 357.81 105.787 L 376.167 59.739 L 241.755 147.169 Z" style="stroke: rgb(0, 0, 0); fill: rgb(100, 5, 5);"></path>
</svg>